<?xml version="1.0" encoding="UTF-8"?>
<svg version="1.1" xmlns="http://www.w3.org/2000/svg" width="500" height="500">
<path d="M0 0 C-0.31867257 6.21411502 -3.4655247 10.14315749 -7 15 C-7.82177734 16.16595703 -7.82177734 16.16595703 -8.66015625 17.35546875 C-11.65598257 21.51429399 -11.65598257 21.51429399 -13 23 C-13.66 23 -14.32 23 -15 23 C-15.4026709 23.88836548 -15.4026709 23.88836548 -15.81347656 24.79467773 C-23.79913172 39.63715161 -44.47584471 54.17283873 -60 60 C-73.45948866 63.82504679 -87.13653227 63.35131476 -101 63.1875 C-103.23957427 63.17241596 -105.47915844 63.15873418 -107.71875 63.14648438 C-113.14605341 63.11379688 -118.57297886 63.06389674 -124 63 C-123.91583119 82.15092426 -123.82060073 101.30176374 -123.71247292 120.45256805 C-123.66251212 129.34612843 -123.61606842 138.23968034 -123.578125 147.13330078 C-123.54501522 154.89180697 -123.50508175 162.65024412 -123.45720994 170.40867376 C-123.43213206 174.51048783 -123.41029743 178.61225722 -123.39665604 182.71412659 C-123.38366343 186.58831879 -123.36143129 190.46235624 -123.33261681 194.33646202 C-123.32367334 195.74554947 -123.31788252 197.15466174 -123.31578636 198.56377602 C-123.26732549 226.2347769 -117.96070552 251.8856286 -99 273 C-98.03810844 274.18461963 -97.07927821 275.37173885 -96.125 276.5625 C-94.23715667 279.03988626 -94.23715667 279.03988626 -92 280 C-92 280.66 -92 281.32 -92 282 C-91.44441406 282.25394531 -90.88882813 282.50789063 -90.31640625 282.76953125 C-87.64705035 284.1874859 -85.35614789 285.8744046 -82.9375 287.6875 C-73.68334839 294.46242266 -64.75983336 299.92515909 -54 304 C-54 305.32 -54 306.64 -54 308 C-74.15002846 308.68693279 -96.57756329 305.40156986 -115 297 C-116.68802734 296.24589844 -116.68802734 296.24589844 -118.41015625 295.4765625 C-135.03591792 287.63317992 -150.38076592 276.12809681 -161 261 C-161.66902344 260.08476562 -162.33804688 259.16953125 -163.02734375 258.2265625 C-168.01062072 251.15532032 -171.22484873 244.16630536 -174 236 C-174.55494141 234.55173828 -174.55494141 234.55173828 -175.12109375 233.07421875 C-179.90763478 220.11724506 -180.30223007 206.45345564 -180.22705078 192.78125 C-180.22648452 191.3404847 -180.22680741 189.89971883 -180.22793579 188.45895386 C-180.22850192 184.6045998 -180.21686974 180.75037412 -180.20278788 176.8960495 C-180.19015499 172.84688494 -180.18910024 168.79771638 -180.18673706 164.74853516 C-180.18055875 157.10627434 -180.16419817 149.4640718 -180.14403808 141.82183647 C-180.12156442 133.11063578 -180.11065702 124.39943207 -180.10064721 115.68820953 C-180.07982804 97.79210684 -180.04472427 79.89605813 -180 62 C-185.07613296 62.11312973 -190.15205159 62.23292822 -195.22789001 62.35858154 C-196.9502396 62.40031791 -198.67263232 62.44031522 -200.39506531 62.47845459 C-212.4893338 62.74778636 -224.16062087 63.35136329 -236 66 C-237.20897949 66.2472583 -237.20897949 66.2472583 -238.44238281 66.49951172 C-249.46218483 68.76681396 -259.04750147 71.99003199 -268.91015625 77.42578125 C-272 79 -272 79 -275 79 C-275 79.66 -275 80.32 -275 81 C-277.01171875 82.4375 -277.01171875 82.4375 -279.6875 84 C-280.55761719 84.515625 -281.42773438 85.03125 -282.32421875 85.5625 C-284.83647195 86.91214843 -287.33203915 88.00011557 -290 89 C-291.42106047 84.73681859 -289.84057833 81.58672087 -288.4375 77.5 C-288.16301025 76.68990479 -287.88852051 75.87980957 -287.60571289 75.04516602 C-285.35906622 68.61930785 -282.50811733 62.83404717 -279 57 C-278.20570973 55.50138762 -277.41397095 54.00141964 -276.625 52.5 C-266.111844 33.71694103 -249.15472409 15.32582153 -228 9 C-218.44799466 6.76015017 -208.8541694 4.86403012 -199.01530457 4.89320374 C-198.34823764 4.89376044 -197.68117071 4.89431715 -196.99388963 4.89489073 C-194.77738238 4.89790616 -192.56096763 4.90807643 -190.34448242 4.91821289 C-188.7470611 4.92177262 -187.14963867 4.92485762 -185.55221558 4.92750549 C-182.11904257 4.93404162 -178.68589591 4.94359224 -175.25273705 4.95540047 C-169.80743867 4.97377154 -164.36214653 4.98331454 -158.91682434 4.99131775 C-143.43418591 5.01540477 -127.95158602 5.0511328 -112.46899414 5.09594727 C-103.91244719 5.12063623 -95.35591562 5.13791445 -86.79933816 5.14750665 C-81.40436452 5.15398925 -76.0095189 5.16942129 -70.6145891 5.19182408 C-67.23109684 5.20370032 -63.84763406 5.2069299 -60.46412277 5.20792198 C-58.91555081 5.21003823 -57.36697843 5.21551858 -55.81843376 5.2249527 C-41.48057525 5.30878965 -27.11629632 4.44211108 -13.1875 0.8125 C-4.58041571 -1.41281978 -4.58041571 -1.41281978 0 0 Z " fill="#D8E9F2" transform="translate(398,93)"/>
<path d="M0 0 C2.31 0 4.62 0 7 0 C7.495 2.475 7.495 2.475 8 5 C8.66 5 9.32 5 10 5 C10 3.35 10 1.7 10 0 C10.33 0 10.66 0 11 0 C11.17273438 0.93457031 11.34546875 1.86914062 11.5234375 2.83203125 C14.7850798 18.67020659 22.18757272 32.9594351 33 45 C33.96189156 46.18461963 34.92072179 47.37173885 35.875 48.5625 C37.76284333 51.03988626 37.76284333 51.03988626 40 52 C40 52.66 40 53.32 40 54 C40.83337891 54.38091797 40.83337891 54.38091797 41.68359375 54.76953125 C44.35294965 56.1874859 46.64385211 57.8744046 49.0625 59.6875 C58.31665161 66.46242266 67.24016664 71.92515909 78 76 C78 77.32 78 78.64 78 80 C57.84997154 80.68693279 35.42243671 77.40156986 17 69 C15.31197266 68.24589844 15.31197266 68.24589844 13.58984375 67.4765625 C-3.03478721 59.63371334 -18.38303696 48.12855935 -29 33 C-29.69222656 32.04996094 -30.38445312 31.09992188 -31.09765625 30.12109375 C-35.43102741 23.96314526 -38.43042288 18.39009228 -40 11 C-37.00306862 11.99897713 -35.97290587 12.65130253 -34 15 C-34 15.66 -34 16.32 -34 17 C-30.10809917 17.14547716 -26.2160933 17.28771642 -22.32397461 17.42724609 C-20.3663144 17.49805356 -18.40874137 17.57125854 -16.45117188 17.64453125 C-8.29650461 17.9350283 -0.1596708 18.06221501 8 18 C8 17.34 8 16.68 8 16 C4.7 16 1.4 16 -2 16 C-1.67 15.34 -1.34 14.68 -1 14 C1.31 14 3.62 14 6 14 C6.95024979 10.30458414 6.95024979 7.69541586 6 4 C3.36 4.33 0.72 4.66 -2 5 C-1.34 3.35 -0.68 1.7 0 0 Z " fill="#7290A3" transform="translate(266,321)"/>
<path d="M0 0 C2.31 0 4.62 0 7 0 C7.495 2.475 7.495 2.475 8 5 C8.66 5 9.32 5 10 5 C10 3.35 10 1.7 10 0 C10.33 0 10.66 0 11 0 C11.17273438 0.93457031 11.34546875 1.86914062 11.5234375 2.83203125 C13.91818328 14.42905859 18.43894974 28.43894974 27 37 C27 38.32 27 39.64 27 41 C19.08 41.33 11.16 41.66 3 42 C3 42.33 3 42.66 3 43 C-1.40914783 44.10228696 -5.48382401 44.07654536 -10 44 C-10.33 43.34 -10.66 42.68 -11 42 C-13.97 42 -16.94 42 -20 42 C-20.66 40.68 -21.32 39.36 -22 38 C-22.76054687 37.731875 -23.52109375 37.46375 -24.3046875 37.1875 C-28.25861011 35.44548192 -29.8387158 32.56365724 -32.125 29 C-32.56440918 28.33025146 -33.00381836 27.66050293 -33.45654297 26.97045898 C-36.67638821 21.90002318 -38.90825624 16.94860383 -40 11 C-37.00306862 11.99897713 -35.97290587 12.65130253 -34 15 C-34 15.66 -34 16.32 -34 17 C-30.10809917 17.14547716 -26.2160933 17.28771642 -22.32397461 17.42724609 C-20.3663144 17.49805356 -18.40874137 17.57125854 -16.45117188 17.64453125 C-8.29650461 17.9350283 -0.1596708 18.06221501 8 18 C8 17.34 8 16.68 8 16 C4.7 16 1.4 16 -2 16 C-1.67 15.34 -1.34 14.68 -1 14 C1.31 14 3.62 14 6 14 C6.95024979 10.30458414 6.95024979 7.69541586 6 4 C3.36 4.33 0.72 4.66 -2 5 C-1.34 3.35 -0.68 1.7 0 0 Z " fill="#9FBAC8" transform="translate(266,321)"/>
<path d="M0 0 C0.99940837 2.59965152 1.14668375 3.65754076 0.03125 6.26171875 C-7.51131452 18.21052632 -7.51131452 18.21052632 -12 23 C-12.66 23 -13.32 23 -14 23 C-14.26844727 23.59224365 -14.53689453 24.1844873 -14.81347656 24.79467773 C-23.34461758 40.65101453 -44.82304515 54.82354609 -61.375 60.8671875 C-65.93694598 62.16805491 -70.30694378 62.16760915 -75 62 C-73.515 61.505 -73.515 61.505 -72 61 C-72 60.34 -72 59.68 -72 59 C-73.65 59 -75.3 59 -77 59 C-77 58.34 -77 57.68 -77 57 C-77.99 56.67 -78.98 56.34 -80 56 C-78.41727399 54.41727399 -76.61965997 54.65264253 -74.4375 54.4375 C-73.61121094 54.35371094 -72.78492188 54.26992187 -71.93359375 54.18359375 C-71.29550781 54.12300781 -70.65742188 54.06242187 -70 54 C-70.66 53.34 -71.32 52.68 -72 52 C-69.525 51.505 -69.525 51.505 -67 51 C-67.495 49.515 -67.495 49.515 -68 48 C-60.08 48 -52.16 48 -44 48 C-44.33 47.01 -44.66 46.02 -45 45 C-44.505 44.01 -44.505 44.01 -44 43 C-41.35139573 42.40644386 -38.70802678 42.25790731 -36 42 C-36 40.68 -36 39.36 -36 38 C-36.99 37.67 -37.98 37.34 -39 37 C-39.33 36.01 -39.66 35.02 -40 34 C-42.31 33.67 -44.62 33.34 -47 33 C-47 33.66 -47 34.32 -47 35 C-51.35332736 35.84023188 -55.44442519 36.10770995 -59.875 36.0625 C-61.02742188 36.05347656 -62.17984375 36.04445312 -63.3671875 36.03515625 C-64.23601562 36.02355469 -65.10484375 36.01195312 -66 36 C-65.34 35.34 -64.68 34.68 -64 34 C-65.65 33.67 -67.3 33.34 -69 33 C-69 32.34 -69 31.68 -69 31 C-70.32 31 -71.64 31 -73 31 C-73 30.34 -73 29.68 -73 29 C-74.32 29 -75.64 29 -77 29 C-77 28.01 -77 27.02 -77 26 C-75.04320312 26.03480469 -75.04320312 26.03480469 -73.046875 26.0703125 C-63.4664139 26.18763923 -54.38662345 26.13679233 -45 24 C-45 24.66 -45 25.32 -45 26 C-42.36 26 -39.72 26 -37 26 C-37 25.01 -37 24.02 -37 23 C-33.04 22.67 -29.08 22.34 -25 22 C-25 21.34 -25 20.68 -25 20 C-31.93 19.505 -31.93 19.505 -39 19 C-38.67 18.34 -38.34 17.68 -38 17 C-30.68698064 15.78116344 -23.39669343 15.89710937 -16 16 C-16 15.34 -16 14.68 -16 14 C-20.95 14 -25.9 14 -31 14 C-30.67 13.34 -30.34 12.68 -30 12 C-30.99 11.34 -31.98 10.68 -33 10 C-32.15405273 9.94054199 -32.15405273 9.94054199 -31.29101562 9.87988281 C-28.69239434 9.68727411 -26.09654123 9.46880965 -23.5 9.25 C-22.1696875 9.1571875 -22.1696875 9.1571875 -20.8125 9.0625 C-15.4787763 8.59187732 -11.42212927 7.62289482 -6.77148438 4.92871094 C-5 4 -5 4 -2.83789062 3.56347656 C-2.23138672 3.3775293 -1.62488281 3.19158203 -1 3 C-0.67 2.01 -0.34 1.02 0 0 Z " fill="#6E9AB4" transform="translate(397,93)"/>
<path d="M0 0 C16.17 0 32.34 0 49 0 C49 0.33 49 0.66 49 1 C33.16 1 17.32 1 1 1 C1.10829075 20.16815936 1.22039174 39.3362843 1.33933926 58.50438023 C1.39445675 67.40582101 1.44790167 76.3072658 1.49731445 85.20874023 C1.54042124 92.97343721 1.58676269 100.73810724 1.63687855 108.50276226 C1.66326809 112.60845139 1.68811248 116.71413592 1.70907402 120.81985664 C1.72891717 124.69645975 1.75313531 128.57301257 1.78049088 132.4495697 C1.78971722 133.8606975 1.79744151 135.27183619 1.80341911 136.68298149 C1.84476798 146.16525386 2.27055633 155.54959908 3 165 C-0.875 162.375 -0.875 162.375 -2 159 C-3.65 158.67 -5.3 158.34 -7 158 C-7.66 156.02 -8.32 154.04 -9 152 C-10.65 152 -12.3 152 -14 152 C-14 151.67 -14 151.34 -14 151 C-12.35 151 -10.7 151 -9 151 C-9 150.34 -9 149.68 -9 149 C-9.66 148.67 -10.32 148.34 -11 148 C-8.69 148 -6.38 148 -4 148 C-4 147.34 -4 146.68 -4 146 C-5.65 146 -7.3 146 -9 146 C-8.34 144.35 -7.68 142.7 -7 141 C-10.3 141 -13.6 141 -17 141 C-17 140.34 -17 139.68 -17 139 C-6.44191344 137.66742597 -6.44191344 137.66742597 -2 139 C-2.495 138.01 -2.495 138.01 -3 137 C-4.81296615 136.37907282 -4.81296615 136.37907282 -7 136 C-7.9075 135.814375 -8.815 135.62875 -9.75 135.4375 C-10.4925 135.293125 -11.235 135.14875 -12 135 C-12 134.34 -12 133.68 -12 133 C-10.35 132.67 -8.7 132.34 -7 132 C-7.66 131.67 -8.32 131.34 -9 131 C-9 130.34 -9 129.68 -9 129 C-10.65 129 -12.3 129 -14 129 C-14 128.67 -14 128.34 -14 128 C-12.35 128 -10.7 128 -9 128 C-9 127.34 -9 126.68 -9 126 C-12.3 126 -15.6 126 -19 126 C-18.47731534 123.23723823 -17.89130413 120.6739124 -17 118 C-12.38 117.67 -7.76 117.34 -3 117 C-4.98 116.34 -6.96 115.68 -9 115 C-9 114.01 -9 113.02 -9 112 C-9.66 111.67 -10.32 111.34 -11 111 C-9.72125 110.9175 -8.4425 110.835 -7.125 110.75 C-4.95365445 110.69632215 -4.95365445 110.69632215 -3 110 C-1.18700955 107.11591751 -0.74551195 104.86868039 -0.7215271 101.49481201 C-0.71036362 100.59741302 -0.69920013 99.70001404 -0.68769836 98.77542114 C-0.68553818 97.79862396 -0.68337799 96.82182678 -0.68115234 95.81542969 C-0.67110672 94.7809671 -0.6610611 93.74650452 -0.65071106 92.68069458 C-0.61981782 89.26109371 -0.60282667 85.84157135 -0.5859375 82.421875 C-0.56723081 80.05103883 -0.54765778 77.68020936 -0.5272522 75.30938721 C-0.47587235 69.06888775 -0.43627784 62.82836668 -0.39910889 56.58776855 C-0.35207293 49.10035792 -0.29044999 41.61305496 -0.23126221 34.12573242 C-0.14297866 22.7505316 -0.07326498 11.37535215 0 0 Z " fill="#C8DBE6" transform="translate(273,155)"/>
<path d="M0 0 C2.22345862 2.88250774 4.22192918 5.83425135 6.125 8.9375 C6.90230469 10.18853516 6.90230469 10.18853516 7.6953125 11.46484375 C9 14 9 14 10 19 C2.08 19.33 -5.84 19.66 -14 20 C-14 20.33 -14 20.66 -14 21 C-18.40914783 22.10228696 -22.48382401 22.07654536 -27 22 C-27.33 21.34 -27.66 20.68 -28 20 C-30.97 20 -33.94 20 -37 20 C-37.66 18.68 -38.32 17.36 -39 16 C-39.78375 15.731875 -40.5675 15.46375 -41.375 15.1875 C-45.28745291 13.41758083 -46.10594441 10.78811117 -48 7 C-45.36 7 -42.72 7 -40 7 C-40.33 8.98 -40.66 10.96 -41 13 C-38.05908413 12.81584568 -38.05908413 12.81584568 -35 12 C-34.67 11.34 -34.34 10.68 -34 10 C-33.67 9.34 -33.34 8.68 -33 8 C-29.875 7.25 -29.875 7.25 -27 7 C-26.67 5.68 -26.34 4.36 -26 3 C-17.75 3 -9.5 3 -1 3 C-0.67 2.01 -0.34 1.02 0 0 Z " fill="#7D9CAE" transform="translate(283,343)"/>
<path d="M0 0 C13.53 0 27.06 0 41 0 C41 0.99 41 1.98 41 3 C41.886875 3.268125 42.77375 3.53625 43.6875 3.8125 C46.7909666 4.9250635 49.31110685 6.10195778 52 8 C52 8.66 52 9.32 52 10 C52.7425 10.12375 53.485 10.2475 54.25 10.375 C56.80141485 10.95486701 58.7267573 11.73708739 61 13 C61 13.99 61 14.98 61 16 C64.96 16.33 68.92 16.66 73 17 C73 17.33 73 17.66 73 18 C47.37562781 18.87355814 22.59811851 12.84874322 0 1 C0 0.67 0 0.34 0 0 Z " fill="#47667B" transform="translate(271,383)"/>
<path d="M0 0 C14.85 0 29.7 0 45 0 C45 0.66 45 1.32 45 2 C31.635 2.495 31.635 2.495 18 3 C21.01833984 2.89558594 21.01833984 2.89558594 24.09765625 2.7890625 C26.06693049 2.7473111 28.03621612 2.70578435 30.00561523 2.67041016 C31.36462697 2.64040705 32.72344781 2.59958815 34.08178711 2.54736328 C46.81703202 2.07031775 46.81703202 2.07031775 51.24609375 5.7734375 C53.3723166 8.01919125 55.16395481 10.51345673 57 13 C51.85940272 13.21812299 46.71858405 13.41475801 41.57641602 13.59204102 C39.82945112 13.65523495 38.08268343 13.72416365 36.33618164 13.79907227 C33.81687677 13.9061086 31.29756895 13.99208765 28.77734375 14.07421875 C27.6175425 14.1302552 27.6175425 14.1302552 26.43431091 14.18742371 C18.62970805 14.40089863 13.46482255 11.63556126 7.1875 7 C6.25292969 6.319375 5.31835938 5.63875 4.35546875 4.9375 C2 3 2 3 0 0 Z " fill="#5A7A8F" transform="translate(253,370)"/>
<path d="M0 0 C0 2.3125 0 2.3125 -1 5 C-2.91942481 6.0453618 -4.80653708 6.68567644 -6.89453125 7.32421875 C-9.00296142 7.91763793 -9.00296142 7.91763793 -10.75 9.01953125 C-14.72616781 10.7522016 -19.13646467 10.80620139 -23.41992188 11.2109375 C-25.28784629 11.41027442 -27.14585357 11.69830838 -29 12 C-29.33 12.66 -29.66 13.32 -30 14 C-35.61 14 -41.22 14 -47 14 C-47 14.66 -47 15.32 -47 16 C-46.34 16.33 -45.68 16.66 -45 17 C-58.34868658 17.74380741 -71.63070304 18.13751277 -85 18 C-84.67 16.68 -84.34 15.36 -84 14 C-82.02 14 -80.04 14 -78 14 C-78 13.34 -78 12.68 -78 12 C-76.64974731 11.93268677 -76.64974731 11.93268677 -75.2722168 11.86401367 C-50.51127411 10.60263016 -50.51127411 10.60263016 -26 7 C-29.96 7 -33.92 7 -38 7 C-38 6.67 -38 6.34 -38 6 C-36.71867187 5.81824219 -35.43734375 5.63648437 -34.1171875 5.44921875 C-24.90690957 4.11854778 -15.81521345 2.67544065 -6.75 0.55078125 C-4 0 -4 0 0 0 Z " fill="#C2D9E8" transform="translate(397,92)"/>
<path d="M0 0 C0 0.66 0 1.32 0 2 C0.66 2.33 1.32 2.66 2 3 C1.67 3.66 1.34 4.32 1 5 C0.195625 5.268125 -0.60875 5.53625 -1.4375 5.8125 C-4.19102549 6.76505824 -4.19102549 6.76505824 -5.1875 9.375 C-5.455625 10.24125 -5.72375 11.1075 -6 12 C-6.37125 12.721875 -6.7425 13.44375 -7.125 14.1875 C-8.14491636 15.96474133 -8.14491636 15.96474133 -8 18 C-9.65 18 -11.3 18 -13 18 C-13 17.34 -13 16.68 -13 16 C-13.99 15.67 -14.98 15.34 -16 15 C-16.495 13.515 -16.495 13.515 -17 12 C-19.31 11.67 -21.62 11.34 -24 11 C-24 11.66 -24 12.32 -24 13 C-28.35332736 13.84023188 -32.44442519 14.10770995 -36.875 14.0625 C-38.02742188 14.05347656 -39.17984375 14.04445312 -40.3671875 14.03515625 C-41.23601562 14.02355469 -42.10484375 14.01195312 -43 14 C-42.34 13.34 -41.68 12.68 -41 12 C-42.65 11.67 -44.3 11.34 -46 11 C-46 10.34 -46 9.68 -46 9 C-47.32 9 -48.64 9 -50 9 C-50 8.34 -50 7.68 -50 7 C-51.32 7 -52.64 7 -54 7 C-54 6.01 -54 5.02 -54 4 C-52.04320312 4.03480469 -52.04320312 4.03480469 -50.046875 4.0703125 C-40.4664139 4.18763923 -31.38662345 4.13679233 -22 2 C-22 2.66 -22 3.32 -22 4 C-19.36 4 -16.72 4 -14 4 C-14 3.01 -14 2.02 -14 1 C-12.04175306 0.83232136 -10.08339945 0.66588795 -8.125 0.5 C-6.48917969 0.36078125 -6.48917969 0.36078125 -4.8203125 0.21875 C-3.21670436 0.09437042 -1.60842449 0 0 0 Z " fill="#76A3BC" transform="translate(374,115)"/>
<path d="M0 0 C2.22345862 2.88250774 4.22192918 5.83425135 6.125 8.9375 C6.90230469 10.18853516 6.90230469 10.18853516 7.6953125 11.46484375 C9.00845611 14.01643119 9.58550389 16.17434968 10 19 C9.34 19 8.68 19 8 19 C7.525625 18.195625 7.05125 17.39125 6.5625 16.5625 C5.20016328 13.7081924 5.20016328 13.7081924 2 13 C2 12.34 2 11.68 2 11 C1.34 10.67 0.68 10.34 0 10 C0.33 9.34 0.66 8.68 1 8 C-4.94 8.495 -4.94 8.495 -11 9 C-10.67 9.66 -10.34 10.32 -10 11 C-7.41394668 11.4683265 -7.41394668 11.4683265 -4.4375 11.625 C-3.42558594 11.69976562 -2.41367187 11.77453125 -1.37109375 11.8515625 C-0.19740234 11.92503906 -0.19740234 11.92503906 1 12 C1 12.33 1 12.66 1 13 C-11.05276854 13.11114233 -22.97960136 12.94014291 -35 12 C-34.1953125 10.046875 -34.1953125 10.046875 -33 8 C-29.875 7.25 -29.875 7.25 -27 7 C-26.67 5.68 -26.34 4.36 -26 3 C-17.75 3 -9.5 3 -1 3 C-0.67 2.01 -0.34 1.02 0 0 Z " fill="#8AA7B7" transform="translate(283,343)"/>
<path d="M0 0 C7.92 0 15.84 0 24 0 C23.67 0.99 23.34 1.98 23 3 C20.6875 4.0625 20.6875 4.0625 18 5 C15.81601365 5.79996657 15.81601365 5.79996657 14 7 C13.73832031 7.64710938 13.47664063 8.29421875 13.20703125 8.9609375 C12 11 12 11 9.6796875 12.046875 C3.94838609 13.48369151 -1.09055936 14.33449664 -7 14 C-6.01 13.67 -5.02 13.34 -4 13 C-4 12.34 -4 11.68 -4 11 C-5.65 11 -7.3 11 -9 11 C-9 10.34 -9 9.68 -9 9 C-9.99 8.67 -10.98 8.34 -12 8 C-10.41727399 6.41727399 -8.61965997 6.65264253 -6.4375 6.4375 C-5.19806641 6.31181641 -5.19806641 6.31181641 -3.93359375 6.18359375 C-2.97646484 6.09271484 -2.97646484 6.09271484 -2 6 C-2.66 5.34 -3.32 4.68 -4 4 C-2.35 3.67 -0.7 3.34 1 3 C0.67 2.01 0.34 1.02 0 0 Z " fill="#78A2BA" transform="translate(329,141)"/>
<path d="M0 0 C2.31 0 4.62 0 7 0 C7.33 1.65 7.66 3.3 8 5 C8.66 5 9.32 5 10 5 C10 3.35 10 1.7 10 0 C10.33 0 10.66 0 11 0 C11.26554687 1.08539063 11.53109375 2.17078125 11.8046875 3.2890625 C12.16133082 4.73440647 12.5181088 6.17971722 12.875 7.625 C13.04902344 8.33785156 13.22304688 9.05070312 13.40234375 9.78515625 C14.42854338 13.92796216 15.58790729 17.96726678 17 22 C16.34 21.67 15.68 21.34 15 21 C14.67 21.99 14.34 22.98 14 24 C5.75 24 -2.5 24 -11 24 C-11 23.67 -11 23.34 -11 23 C-7.7 23 -4.4 23 -1 23 C-1.33 21.68 -1.66 20.36 -2 19 C-2.99 18.67 -3.98 18.34 -5 18 C-0.71 18 3.58 18 8 18 C8 17.34 8 16.68 8 16 C4.7 16 1.4 16 -2 16 C-1.67 15.34 -1.34 14.68 -1 14 C1.31 14 3.62 14 6 14 C6.95024979 10.30458414 6.95024979 7.69541586 6 4 C3.36 4.33 0.72 4.66 -2 5 C-1.34 3.35 -0.68 1.7 0 0 Z " fill="#93B0BD" transform="translate(266,321)"/>
<path d="M0 0 C16.17 0 32.34 0 49 0 C49 0.33 49 0.66 49 1 C33.16 1 17.32 1 1 1 C1.10829075 20.16815936 1.22039174 39.3362843 1.33933926 58.50438023 C1.39445675 67.40582101 1.44790167 76.3072658 1.49731445 85.20874023 C1.54042124 92.97343721 1.58676269 100.73810724 1.63687855 108.50276226 C1.66326809 112.60845139 1.68811248 116.71413592 1.70907402 120.81985664 C1.72891717 124.69645975 1.75313531 128.57301257 1.78049088 132.4495697 C1.78971722 133.8606975 1.79744151 135.27183619 1.80341911 136.68298149 C1.84476798 146.16525386 2.27055633 155.54959908 3 165 C1.02769089 163.90693188 1.02769089 163.90693188 -1 162 C-1.47657394 159.10084248 -1.47657394 159.10084248 -1.4430542 155.48908997 C-1.44238835 154.82499121 -1.44172249 154.16089245 -1.44103646 153.47666949 C-1.43390151 151.24666482 -1.39801285 149.01804682 -1.36230469 146.78833008 C-1.35131668 145.1918597 -1.34209732 143.59537631 -1.33451843 141.99888611 C-1.30889073 137.66006539 -1.25845022 133.32184234 -1.20364666 128.98330522 C-1.15058483 124.45103281 -1.12021301 119.91861067 -1.08746338 115.38615417 C-1.02196941 106.80122575 -0.93598661 98.2166289 -0.84269357 89.63196248 C-0.73748644 79.85953316 -0.65504219 70.08695363 -0.5745368 60.31429446 C-0.40840353 40.20923299 -0.21059269 20.10464832 0 0 Z " fill="#7692A7" transform="translate(273,155)"/>
<path d="M0 0 C0 0.66 0 1.32 0 2 C0.66 2.33 1.32 2.66 2 3 C-0.31 3.33 -2.62 3.66 -5 4 C-2.69 4.33 -0.38 4.66 2 5 C2 5.33 2 5.66 2 6 C-2.95 6.33 -7.9 6.66 -13 7 C-10.525 7.495 -10.525 7.495 -8 8 C-8.639375 8.28875 -9.27875 8.5775 -9.9375 8.875 C-12.15206079 9.82823451 -12.15206079 9.82823451 -13 12 C-15.64 12 -18.28 12 -21 12 C-20.34 11.34 -19.68 10.68 -19 10 C-20.65 9.67 -22.3 9.34 -24 9 C-24 8.34 -24 7.68 -24 7 C-25.32 7 -26.64 7 -28 7 C-28 6.34 -28 5.68 -28 5 C-29.32 5 -30.64 5 -32 5 C-32 4.01 -32 3.02 -32 2 C-31.44650879 2.01047363 -30.89301758 2.02094727 -30.32275391 2.03173828 C-20.06758396 2.20034565 -9.9604164 0 0 0 Z " fill="#91BBD3" transform="translate(352,117)"/>
<path d="M0 0 C-4.83977962 2.79716397 -8.8680675 3.59187117 -14.3125 4.0625 C-16.9057788 4.29449394 -19.42281941 4.59870891 -22 5 C-22.33 5.66 -22.66 6.32 -23 7 C-28.61 7 -34.22 7 -40 7 C-40 7.66 -40 8.32 -40 9 C-39.34 9.33 -38.68 9.66 -38 10 C-48.395 10.495 -48.395 10.495 -59 11 C-59 10.67 -59 10.34 -59 10 C-57.35 10 -55.7 10 -54 10 C-54 9.01 -54 8.02 -54 7 C-50.104489 6.39374344 -46.20858616 5.79004908 -42.3125 5.1875 C-41.14323975 5.00662842 -39.97397949 4.82575684 -38.76928711 4.6394043 C-30.32669268 3.34049954 -21.87724532 2.10398271 -13.41333008 0.9519043 C-12.60790771 0.84015869 -11.80248535 0.72841309 -10.97265625 0.61328125 C-10.27406494 0.51829346 -9.57547363 0.42330566 -8.85571289 0.32543945 C-2.52740366 -0.78436665 -2.52740366 -0.78436665 0 0 Z " fill="#97BAD0" transform="translate(390,99)"/>
<path d="M0 0 C2.64 0 5.28 0 8 0 C7.67 1.98 7.34 3.96 7 6 C7.93682617 5.99214478 7.93682617 5.99214478 8.89257812 5.98413086 C11.76170824 5.96315924 14.63082215 5.95027624 17.5 5.9375 C18.48226562 5.92912109 19.46453125 5.92074219 20.4765625 5.91210938 C26.08674757 5.89340876 31.45150899 6.161121 37 7 C37 7.33 37 7.66 37 8 C35.35 8.33 33.7 8.66 32 9 C32 9.33 32 9.66 32 10 C28.7 10.33 25.4 10.66 22 11 C22 11.33 22 11.66 22 12 C18.37 12.33 14.74 12.66 11 13 C10.34 11.68 9.68 10.36 9 9 C8.21625 8.731875 7.4325 8.46375 6.625 8.1875 C2.71254709 6.41758083 1.89405559 3.78811117 0 0 Z " fill="#8EACBC" transform="translate(235,350)"/>
<path d="M0 0 C9.24 0 18.48 0 28 0 C23.78370866 2.10814567 21.60209225 2.17700355 17 2 C17 2.99 17 3.98 17 5 C14.50018262 5.1698905 12.00020399 5.33597953 9.5 5.5 C8.80390625 5.54769531 8.1078125 5.59539062 7.390625 5.64453125 C2.58304475 5.95613367 -2.18228746 6.04340282 -7 6 C-6.67 4.68 -6.34 3.36 -6 2 C-4.02 2 -2.04 2 0 2 C0 1.34 0 0.68 0 0 Z " fill="#A7C9E1" transform="translate(319,104)"/>
<path d="M0 0 C-8.8287148 10.91972621 -21.17519398 23.04709888 -35 27 C-33.54163185 23.15521125 -31.63541701 21.8177085 -28 20 C-25.6875 19.3125 -25.6875 19.3125 -24 19 C-23.67 16.69 -23.34 14.38 -23 12 C-19.92382812 11.70703125 -19.92382812 11.70703125 -16.84765625 11.4140625 C-16.23792969 11.27742187 -15.62820313 11.14078125 -15 11 C-14.67 10.34 -14.34 9.68 -14 9 C-12.68 9 -11.36 9 -10 9 C-10.33 8.01 -10.66 7.02 -11 6 C-8.17224239 1.33419995 -5.4220554 -0.29308408 0 0 Z " fill="#567A93" transform="translate(376,124)"/>
<path d="M0 0 C1.73662334 3.22515763 2.8905928 6.51329166 4 10 C3.34 9.67 2.68 9.34 2 9 C1.67 9.99 1.34 10.98 1 12 C-7.25 12 -15.5 12 -24 12 C-24 11.67 -24 11.34 -24 11 C-20.7 11 -17.4 11 -14 11 C-14.33 9.68 -14.66 8.36 -15 7 C-15.99 6.67 -16.98 6.34 -18 6 C-10.08 5.505 -10.08 5.505 -2 5 C-1.67 4.01 -1.34 3.02 -1 2 C-0.67 1.34 -0.34 0.68 0 0 Z " fill="#8DA7B6" transform="translate(279,333)"/>
<path d="M0 0 C0.33 0 0.66 0 1 0 C1.01030746 0.99399307 1.02061493 1.98798615 1.03123474 3.01210022 C1.12955632 12.44052893 1.23233814 21.86890022 1.33933926 31.29723454 C1.39419256 36.14287873 1.44754642 40.98852921 1.49731445 45.83422852 C1.54552006 50.52217054 1.59787204 55.21005055 1.65294075 59.89791679 C1.6731132 61.6745897 1.69186289 63.45127942 1.70907402 65.22798347 C1.81311926 75.85581125 2.15347561 86.40292318 3 97 C1.02264404 96.06059265 1.02264404 96.06059265 -1 94 C-1.35098178 90.88720649 -1.44726212 88.13852094 -1.36230469 85.03051758 C-1.35313522 84.11324387 -1.34396576 83.19597015 -1.33451843 82.25090027 C-1.29940797 79.21485147 -1.23574047 76.18010019 -1.171875 73.14453125 C-1.14198192 71.04133994 -1.11386738 68.93812265 -1.08746338 66.83488464 C-1.01313479 61.29592835 -0.91459959 55.75765496 -0.81109619 50.21917725 C-0.70976196 44.56885767 -0.63121767 38.918227 -0.55078125 33.26757812 C-0.38954879 22.1779605 -0.20275354 11.08893072 0 0 Z " fill="#7F929E" transform="translate(273,223)"/>
<path d="M0 0 C2.29141286 -0.05384521 4.58318188 -0.09272087 6.875 -0.125 C8.78925781 -0.15980469 8.78925781 -0.15980469 10.7421875 -0.1953125 C14 0 14 0 16 2 C0.89489861 4.64339274 -13.67660378 5.39013739 -29 5 C-29 4.01 -29 3.02 -29 2 C-19.43 2 -9.86 2 0 2 C0 1.34 0 0.68 0 0 Z " fill="#EAF6FD" transform="translate(357,98)"/>
<path d="M0 0 C4.62 0 9.24 0 14 0 C14.33 1.65 14.66 3.3 15 5 C15.66 5.33 16.32 5.66 17 6 C17 6.99 17 7.98 17 9 C17.66 9.33 18.32 9.66 19 10 C12.73 10 6.46 10 0 10 C0 9.67 0 9.34 0 9 C1.98 8.67 3.96 8.34 6 8 C6 7.67 6 7.34 6 7 C2.04 6.67 -1.92 6.34 -6 6 C-6 5.67 -6 5.34 -6 5 C-3.36 4.67 -0.72 4.34 2 4 C2 3.34 2 2.68 2 2 C1.34 1.34 0.68 0.68 0 0 Z " fill="#6F8FA2" transform="translate(270,351)"/>
<path d="M0 0 C0.99 0.33 1.98 0.66 3 1 C0.42595029 4.86107457 -1.61020259 4.94319692 -6 6 C-6.33 7.98 -6.66 9.96 -7 12 C-8.32 12 -9.64 12 -11 12 C-11 11.34 -11 10.68 -11 10 C-15.95 10 -20.9 10 -26 10 C-25.67 9.34 -25.34 8.68 -25 8 C-25.99 7.34 -26.98 6.68 -28 6 C-27.15405273 5.94054199 -27.15405273 5.94054199 -26.29101562 5.87988281 C-23.69239434 5.68727411 -21.09654123 5.46880965 -18.5 5.25 C-17.613125 5.188125 -16.72625 5.12625 -15.8125 5.0625 C-11.22953344 4.6581206 -7.6200183 4.03480942 -3.53125 1.859375 C-2.3659375 1.24578125 -1.200625 0.6321875 0 0 Z " fill="#7CA2BA" transform="translate(392,97)"/>
<path d="M0 0 C14.85 0 29.7 0 45 0 C45 0.66 45 1.32 45 2 C35.43 2.33 25.86 2.66 16 3 C16 3.33 16 3.66 16 4 C14.02 4 12.04 4 10 4 C10 4.66 10 5.32 10 6 C4.74528321 4.8102528 3.36707128 4.48942837 0 0 Z " fill="#618296" transform="translate(253,370)"/>
<path d="M0 0 C3.41602015 -0.17446934 6.83089637 -0.28089623 10.25 -0.375 C11.21808594 -0.42527344 12.18617188 -0.47554688 13.18359375 -0.52734375 C20.22705449 -0.67307052 20.22705449 -0.67307052 22.56445312 1.36230469 C23.671875 3.0234375 23.671875 3.0234375 25 6 C24 7 24 7 20.9375 7.0625 C19.968125 7.041875 18.99875 7.02125 18 7 C18 6.67 18 6.34 18 6 C9.585 4.515 9.585 4.515 1 3 C0.67 2.01 0.34 1.02 0 0 Z " fill="#698A9E" transform="translate(270,362)"/>
<path d="M0 0 C1.37671875 -0.00386719 1.37671875 -0.00386719 2.78125 -0.0078125 C5.45004454 0.12255965 7.89865153 0.53121394 10.5 1.125 C9.84 1.785 9.18 2.445 8.5 3.125 C11.40937695 4.57968847 14.13307284 4.40007216 17.375 4.5625 C24.18237702 4.94458456 30.79867618 5.83964366 37.5 7.125 C37.5 7.455 37.5 7.785 37.5 8.125 C21.11122449 8.68370826 5.44566898 5.49058177 -10.5 2.125 C-10.5 1.795 -10.5 1.465 -10.5 1.125 C-6.94075986 0.31256475 -3.64872305 -0.01024922 0 0 Z " fill="#324E61" transform="translate(306.5,392.875)"/>
<path d="M0 0 C2.31 0 4.62 0 7 0 C8.00496852 3.01490557 8.10335303 5.04181692 8.0625 8.1875 C8.05347656 9.08855469 8.04445313 9.98960937 8.03515625 10.91796875 C8.02355469 11.60503906 8.01195312 12.29210937 8 13 C5 14 5 14 2 13 C0.8125 9.9375 0.8125 9.9375 0 7 C-1.65 7 -3.3 7 -5 7 C-5 6.67 -5 6.34 -5 6 C-3.35 6 -1.7 6 0 6 C0 5.34 0 4.68 0 4 C-0.66 3.67 -1.32 3.34 -2 3 C0.31 3 2.62 3 5 3 C5 2.34 5 1.68 5 1 C3.35 1 1.7 1 0 1 C0 0.67 0 0.34 0 0 Z " fill="#B3C9D4" transform="translate(264,300)"/>
<path d="M0 0 C2.39652528 -0.08139142 4.79025436 -0.14067009 7.1875 -0.1875 C7.86103516 -0.21263672 8.53457031 -0.23777344 9.22851562 -0.26367188 C13.70864748 -0.32923478 16.39440999 0.33256351 20 3 C19.67 3.99 19.34 4.98 19 6 C16.77027727 5.88534579 14.54121247 5.75785234 12.3125 5.625 C11.07113281 5.55539062 9.82976562 5.48578125 8.55078125 5.4140625 C5.30682228 5.03577906 2.93432815 4.38020024 0 3 C0 2.01 0 1.02 0 0 Z " fill="#436076" transform="translate(312,393)"/>
<path d="M0 0 C1.32 0 2.64 0 4 0 C4 4.29 4 8.58 4 13 C-0.95 13 -5.9 13 -11 13 C-11 12.67 -11 12.34 -11 12 C-4.565 11.505 -4.565 11.505 2 11 C2.33 9.35 2.66 7.7 3 6 C-2.94 6 -8.88 6 -15 6 C-14.67 5.34 -14.34 4.68 -14 4 C-11.28553021 3.68758545 -8.66090639 3.48663408 -5.9375 3.375 C-5.17888672 3.33632812 -4.42027344 3.29765625 -3.63867188 3.2578125 C-1.75952805 3.16326438 0.12020336 3.08053244 2 3 C2 2.34 2 1.68 2 1 C1.34 0.67 0.68 0.34 0 0 Z " fill="#C4DDEB" transform="translate(269,168)"/>
<path d="M0 0 C4.05281712 1.22527029 7.44360764 2.69880494 11 5 C11 4.34 11 3.68 11 3 C12.43931117 3.45261358 13.87638999 3.91232979 15.3125 4.375 C16.11300781 4.63023437 16.91351563 4.88546875 17.73828125 5.1484375 C20 6 20 6 23 8 C23 8.66 23 9.32 23 10 C21.58344207 10.0272415 20.16672955 10.04650467 18.75 10.0625 C17.56664062 10.07990234 17.56664062 10.07990234 16.359375 10.09765625 C14.09308998 10.00385306 12.1711105 9.63241063 10 9 C10 8.01 10 7.02 10 6 C9.36191406 5.81824219 8.72382813 5.63648438 8.06640625 5.44921875 C7.24011719 5.19785156 6.41382813 4.94648438 5.5625 4.6875 C4.73878906 4.44386719 3.91507812 4.20023437 3.06640625 3.94921875 C2.04353516 3.47935547 2.04353516 3.47935547 1 3 C0.67 2.01 0.34 1.02 0 0 Z " fill="#627C8E" transform="translate(322,390)"/>
<path d="M0 0 C0.66 0 1.32 0 2 0 C2 6.27 2 12.54 2 19 C0.02 19 -1.96 19 -4 19 C-3.67 18.34 -3.34 17.68 -3 17 C-4.32 16.34 -5.64 15.68 -7 15 C-3.535 14.505 -3.535 14.505 0 14 C0 13.34 0 12.68 0 12 C-2.97 11.67 -5.94 11.34 -9 11 C-9 10.67 -9 10.34 -9 10 C-4.545 9.505 -4.545 9.505 0 9 C0.33 7.68 0.66 6.36 1 5 C-1.31 4.67 -3.62 4.34 -6 4 C-6 3.67 -6 3.34 -6 3 C-4.02 3 -2.04 3 0 3 C0 2.01 0 1.02 0 0 Z " fill="#CFE1EA" transform="translate(271,240)"/>
<path d="M0 0 C0.33 0.66 0.66 1.32 1 2 C-0.65 2 -2.3 2 -4 2 C-4 2.66 -4 3.32 -4 4 C-3.34 4.33 -2.68 4.66 -2 5 C-12.395 5.495 -12.395 5.495 -23 6 C-23 5.67 -23 5.34 -23 5 C-21.35 5 -19.7 5 -18 5 C-18 4.01 -18 3.02 -18 2 C-11.93184478 0.77100654 -6.20104812 -0.27560214 0 0 Z " fill="#9BC0D5" transform="translate(354,104)"/>
<path d="M0 0 C0.33 0.99 0.66 1.98 1 3 C1.55034912 2.67999023 2.10069824 2.35998047 2.66772461 2.03027344 C7.03178175 0.10246844 11.85230231 0.42927088 16.5625 0.25 C18.14321289 0.16685547 18.14321289 0.16685547 19.75585938 0.08203125 C20.76583984 0.03949219 21.77582031 -0.00304687 22.81640625 -0.046875 C24.20001343 -0.10633301 24.20001343 -0.10633301 25.61157227 -0.16699219 C28 0 28 0 31 2 C30.00419922 2.09087891 30.00419922 2.09087891 28.98828125 2.18359375 C28.10527344 2.26738281 27.22226563 2.35117187 26.3125 2.4375 C25.00732422 2.55931641 25.00732422 2.55931641 23.67578125 2.68359375 C21.0189729 2.95495694 21.0189729 2.95495694 18.51953125 3.53515625 C15.74043974 4.04788786 13.19771924 4.06220869 10.375 4 C7.14310717 3.92916399 5.09343748 3.96885417 2 5 C1.26676204 7.01508358 1.26676204 7.01508358 1 9 C-0.4783226 6.04335481 -0.06032783 3.25770263 0 0 Z " fill="#D0E1EA" transform="translate(220,310)"/>
<path d="M0 0 C0.99940837 2.59965152 1.14668375 3.65754076 0.03125 6.26171875 C-7.51131452 18.21052632 -7.51131452 18.21052632 -12 23 C-12.66 23 -13.32 23 -14 23 C-14.2475 23.598125 -14.495 24.19625 -14.75 24.8125 C-16.16370012 27.28647521 -17.65055383 28.43370255 -20 30 C-18.37554409 26.1793523 -15.90174615 23.42554094 -13.1875 20.3125 C-9.07035761 15.49946102 -5.83744826 10.65182783 -3 5 C-2.01005812 3.32733959 -1.01567807 1.65715896 0 0 Z " fill="#4C728C" transform="translate(397,93)"/>
<path d="M0 0 C4.88835226 0.54107716 8.23308356 2.74150291 12.25 5.375 C12.88679688 5.77460938 13.52359375 6.17421875 14.1796875 6.5859375 C18.87410997 9.62232991 18.87410997 9.62232991 20 13 C18.32598903 12.35199575 16.66194738 11.67834587 15 11 C14.28714844 10.72027344 13.57429688 10.44054687 12.83984375 10.15234375 C7.38892218 7.90463486 2.76166782 5.52333565 0 0 Z " fill="#809BAB" transform="translate(313,382)"/>
<path d="M0 0 C2.64 0 5.28 0 8 0 C7.67 1.98 7.34 3.96 7 6 C14.26 6 21.52 6 29 6 C29 6.33 29 6.66 29 7 C21.08 7.33 13.16 7.66 5 8 C2.525 4.04 2.525 4.04 0 0 Z " fill="#87A5B6" transform="translate(235,350)"/>
<path d="M0 0 C1.9375 0.3125 1.9375 0.3125 4 1 C4.33 1.99 4.66 2.98 5 4 C8.3 4 11.6 4 15 4 C15 4.99 15 5.98 15 7 C14.01 7 13.02 7 12 7 C12.33 7.99 12.66 8.98 13 10 C12.67 10.66 12.34 11.32 12 12 C8.35865951 10.49917723 6.31243814 8.39379438 3.75 5.4375 C3.04359375 4.63183594 2.3371875 3.82617188 1.609375 2.99609375 C0 1 0 1 0 0 Z " fill="#698897" transform="translate(241,358)"/>
<path d="M0 0 C-0.61975785 3.355762 -1.84462848 5.52263528 -3.875 8.25 C-4.38804687 8.95640625 -4.90109375 9.6628125 -5.4296875 10.390625 C-5.94789063 10.92171875 -6.46609375 11.4528125 -7 12 C-7.99 12 -8.98 12 -10 12 C-10.33 10.68 -10.66 9.36 -11 8 C-9.68 8 -8.36 8 -7 8 C-7.33 7.01 -7.66 6.02 -8 5 C-6.24700373 0.41524054 -4.98835499 0 0 0 Z " fill="#6791AA" transform="translate(392,101)"/>
<path d="M0 0 C0.82242187 0.05220703 1.64484375 0.10441406 2.4921875 0.15820312 C4.49522899 0.28630462 6.49768871 0.42345061 8.5 0.5625 C5.58235 2.5076 3.87462715 3.01526317 0.5 3.5625 C0.5 2.9025 0.5 2.2425 0.5 1.5625 C-3.84184202 1.74714366 -3.84184202 1.74714366 -7.5 3.5625 C-9.01928038 3.63429964 -10.54167482 3.64642007 -12.0625 3.625 C-12.88878906 3.61597656 -13.71507812 3.60695312 -14.56640625 3.59765625 C-15.20449219 3.58605469 -15.84257812 3.57445312 -16.5 3.5625 C-16.83 2.5725 -17.16 1.5825 -17.5 0.5625 C-11.52842601 -0.36199827 -6.01758541 -0.4263273 0 0 Z " fill="#B0D3E8" transform="translate(281.5,140.4375)"/>
<path d="M0 0 C0 0.33 0 0.66 0 1 C2.97 1.33 5.94 1.66 9 2 C7.02 2.99 7.02 2.99 5 4 C4.34 3.67 3.68 3.34 3 3 C3 3.66 3 4.32 3 5 C-2.02296004 6.13016601 -5.97874074 5.77916092 -11 5 C-9.68 4.34 -8.36 3.68 -7 3 C-7.99 2.34 -8.98 1.68 -10 1 C-6.78548731 -0.60725635 -3.56387464 -0.05748185 0 0 Z " fill="#84B1C9" transform="translate(347,123)"/>
<path d="M0 0 C4.62 0 9.24 0 14 0 C14 0.33 14 0.66 14 1 C10.7 1.66 7.4 2.32 4 3 C4 3.66 4 4.32 4 5 C0.37 5.33 -3.26 5.66 -7 6 C-6.67 4.68 -6.34 3.36 -6 2 C-4.02 2 -2.04 2 0 2 C0 1.34 0 0.68 0 0 Z " fill="#B2D2E5" transform="translate(319,104)"/>
<path d="M0 0 C0.33 0.66 0.66 1.32 1 2 C3.64 2 6.28 2 9 2 C8.33333333 4.66666667 7.66666667 7.33333333 7 10 C6.01 10 5.02 10 4 10 C3.67 10.66 3.34 11.32 3 12 C2.49166409 10.75336669 1.99368855 9.50250613 1.5 8.25 C1.2215625 7.55390625 0.943125 6.8578125 0.65625 6.140625 C0 4 0 4 0 0 Z " fill="#ACCAD5" transform="translate(222,320)"/>
<path d="M0 0 C4.95 0 9.9 0 15 0 C14.67 1.98 14.34 3.96 14 6 C10.04 6 6.08 6 2 6 C2 5.67 2 5.34 2 5 C3.65 5 5.3 5 7 5 C7 4.01 7 3.02 7 2 C4.69 1.67 2.38 1.34 0 1 C0 0.67 0 0.34 0 0 Z " fill="#BECFD9" transform="translate(257,278)"/>
<path d="M0 0 C5.94 0 11.88 0 18 0 C18 0.99 18 1.98 18 3 C17.15695312 3.06058594 16.31390625 3.12117188 15.4453125 3.18359375 C14.34960938 3.26738281 13.25390625 3.35117187 12.125 3.4375 C11.03445313 3.51871094 9.94390625 3.59992188 8.8203125 3.68359375 C6.05271029 3.83001703 6.05271029 3.83001703 4 5 C3.896875 4.360625 3.79375 3.72125 3.6875 3.0625 C3.460625 2.381875 3.23375 1.70125 3 1 C2.01 0.67 1.02 0.34 0 0 Z " fill="#92AEBC" transform="translate(261,339)"/>
<path d="M0 0 C0 0.33 0 0.66 0 1 C-7.49719609 2.14364008 -14.46818582 1.75667376 -22 1 C-21.67 0.34 -21.34 -0.32 -21 -1 C-14.78071084 -2.44254847 -5.47512222 -3.65008148 0 0 Z " fill="#7AA7C1" transform="translate(380,111)"/>
<path d="M0 0 C2.99693138 0.99897713 4.02709413 1.65130253 6 4 C6 4.66 6 5.32 6 6 C7.093125 5.95875 8.18625 5.9175 9.3125 5.875 C13 6 13 6 16 8 C12.7169902 9.6415049 9.57454967 8.51888624 6 8 C5.67 8.66 5.34 9.32 5 10 C2.08772731 6.71195019 0.50298788 4.40114397 0 0 Z " fill="#AEC8D5" transform="translate(226,332)"/>
<path d="M0 0 C0 0.99 0 1.98 0 3 C-6.435 3.495 -6.435 3.495 -13 4 C-12.67 3.34 -12.34 2.68 -12 2 C-12.99 1.34 -13.98 0.68 -15 0 C-13.06325815 -0.19517554 -11.12555991 -0.38087873 -9.1875 -0.5625 C-8.10855469 -0.66691406 -7.02960938 -0.77132812 -5.91796875 -0.87890625 C-3 -1 -3 -1 0 0 Z " fill="#81AAC6" transform="translate(379,103)"/>
<path d="M0 0 C4.29 0 8.58 0 13 0 C13 0.66 13 1.32 13 2 C14.98 2 16.96 2 19 2 C19 2.33 19 2.66 19 3 C13.91913204 3.84681133 9.15171623 4.09038099 4 4 C3.67 3.34 3.34 2.68 3 2 C2.01 1.34 1.02 0.68 0 0 Z " fill="#527085" transform="translate(277,385)"/>
<path d="M0 0 C1.98 0 3.96 0 6 0 C6 0.66 6 1.32 6 2 C10.95 2.33 15.9 2.66 21 3 C21 3.33 21 3.66 21 4 C13.74 4 6.48 4 -1 4 C-0.67 2.68 -0.34 1.36 0 0 Z " fill="#98B4C3" transform="translate(243,352)"/>
<path d="M0 0 C2.31 0 4.62 0 7 0 C6.67 2.31 6.34 4.62 6 7 C5.443125 6.855625 4.88625 6.71125 4.3125 6.5625 C1.88615805 5.97230872 -0.54906345 5.476571 -3 5 C-3 4.34 -3 3.68 -3 3 C-1.35 2.67 0.3 2.34 2 2 C1.34 1.34 0.68 0.68 0 0 Z " fill="#BDCFDA" transform="translate(264,285)"/>
<path d="M0 0 C-4.92318581 2.89644843 -8.81723899 3.51162149 -14.375 3.6875 C-15.11105469 3.72166016 -15.84710938 3.75582031 -16.60546875 3.79101562 C-18.40313853 3.87272789 -20.20154046 3.93805781 -22 4 C-18.47921315 1.98434953 -14.94911236 1.17009326 -11 0.3125 C-9.783125 0.04050781 -8.56625 -0.23148437 -7.3125 -0.51171875 C-4.35566123 -0.94757352 -2.74913631 -1.02405328 0 0 Z " fill="#93B7CD" transform="translate(390,99)"/>
<path d="M0 0 C-0.33 1.65 -0.66 3.3 -1 5 C-4.3 5.33 -7.6 5.66 -11 6 C-10.01 5.34 -9.02 4.68 -8 4 C-7.67 3.67 -7.34 3.34 -7 3 C-8.65 3 -10.3 3 -12 3 C-7.87960164 0.25306776 -4.92304458 0 0 0 Z " fill="#ACC6D7" transform="translate(397,92)"/>
<path d="M0 0 C2.31 0 4.62 0 7 0 C7.33 1.65 7.66 3.3 8 5 C4.7 5 1.4 5 -2 5 C-1.34 3.35 -0.68 1.7 0 0 Z " fill="#A2BAC8" transform="translate(266,321)"/>
<path d="M0 0 C2.31 0 4.62 0 7 0 C7 0.66 7 1.32 7 2 C7.66 2.33 8.32 2.66 9 3 C8.67 3.66 8.34 4.32 8 5 C4.37 5 0.74 5 -3 5 C-2.34 4.34 -1.68 3.68 -1 3 C-0.01 3 0.98 3 2 3 C2 2.34 2 1.68 2 1 C1.34 0.67 0.68 0.34 0 0 Z " fill="#92BBD3" transform="translate(313,136)"/>
<path d="M0 0 C1.67542976 0.28604898 3.34385343 0.61781233 5 1 C5 1.99 5 2.98 5 4 C2.70858714 4.05384521 0.41681812 4.09272087 -1.875 4.125 C-3.78925781 4.15980469 -3.78925781 4.15980469 -5.7421875 4.1953125 C-9 4 -9 4 -11 2 C-10.28972656 1.93941406 -9.57945312 1.87882813 -8.84765625 1.81640625 C-7.46900391 1.69072266 -7.46900391 1.69072266 -6.0625 1.5625 C-5.14597656 1.48128906 -4.22945313 1.40007812 -3.28515625 1.31640625 C-1.03840268 1.23955024 -1.03840268 1.23955024 0 0 Z " fill="#86B1CA" transform="translate(337,131)"/>
<path d="M0 0 C4.62 0 9.24 0 14 0 C13.67 0.99 13.34 1.98 13 3 C11.39667209 3.08121924 9.79215974 3.13929134 8.1875 3.1875 C7.29417969 3.22230469 6.40085937 3.25710938 5.48046875 3.29296875 C3 3 3 3 0 0 Z " fill="#7B99AA" transform="translate(270,351)"/>
<path d="M0 0 C-0.33 1.32 -0.66 2.64 -1 4 C-2.1446875 4.2165625 -2.1446875 4.2165625 -3.3125 4.4375 C-6.08172908 4.9632594 -6.08172908 4.9632594 -9 6 C-9.33 5.34 -9.66 4.68 -10 4 C-9.34 4 -8.68 4 -8 4 C-8 3.34 -8 2.68 -8 2 C-8.66 1.67 -9.32 1.34 -10 1 C-6.52674819 -0.1577506 -3.63932552 -0.06866652 0 0 Z " fill="#658DA8" transform="translate(378,120)"/>
<path d="M0 0 C3.97737884 1.76772393 6.87265288 3.09986362 9 7 C9 8.32 9 9.64 9 11 C8.34 11 7.68 11 7 11 C6.525625 10.195625 6.05125 9.39125 5.5625 8.5625 C4.20016328 5.7081924 4.20016328 5.7081924 1 5 C1 4.34 1 3.68 1 3 C0.34 2.67 -0.32 2.34 -1 2 C-0.67 1.34 -0.34 0.68 0 0 Z " fill="#8BADBE" transform="translate(284,351)"/>
<path d="M0 0 C2.97 0 5.94 0 9 0 C9 1.32 9 2.64 9 4 C6.03 4 3.06 4 0 4 C0 2.68 0 1.36 0 0 Z " fill="#C3D5DF" transform="translate(262,273)"/>
<path d="M0 0 C4.29 0 8.58 0 13 0 C13 0.33 13 0.66 13 1 C10.69 1 8.38 1 6 1 C5.34 2.65 4.68 4.3 4 6 C3.01 5.67 2.02 5.34 1 5 C0.67 3.35 0.34 1.7 0 0 Z " fill="#AAC5D4" transform="translate(234,345)"/>
<path d="M0 0 C-1.95245185 1.19714555 -3.91214997 2.38248074 -5.875 3.5625 C-6.96554687 4.22378906 -8.05609375 4.88507813 -9.1796875 5.56640625 C-10.57574219 6.27603516 -10.57574219 6.27603516 -12 7 C-12.66 6.67 -13.32 6.34 -14 6 C-11.54419866 2.31629799 -9.0301639 0.71652844 -4.875 -0.75 C-3 -1 -3 -1 0 0 Z " fill="#486C82" transform="translate(355,144)"/>
<path d="M0 0 C2.31 0 4.62 0 7 0 C6.67 1.98 6.34 3.96 6 6 C4.35 6 2.7 6 1 6 C0.67 4.02 0.34 2.04 0 0 Z " fill="#6792AC" transform="translate(360,127)"/>
<path d="M0 0 C3.3 0.33 6.6 0.66 10 1 C10 1.99 10 2.98 10 4 C6.37 4 2.74 4 -1 4 C-1.33 3.34 -1.66 2.68 -2 2 C-1.34 2 -0.68 2 0 2 C0 1.34 0 0.68 0 0 Z " fill="#98B5C3" transform="translate(252,347)"/>
<path d="M0 0 C0.66 0.33 1.32 0.66 2 1 C2.31241371 3.54941373 2.51303421 6.00361513 2.625 8.5625 C2.66367187 9.27341797 2.70234375 9.98433594 2.7421875 10.71679688 C2.83671783 12.47742425 2.91945817 14.23867728 3 16 C0.984375 14.91796875 0.984375 14.91796875 -1 13 C-1.171875 9.86328125 -1.171875 9.86328125 -0.75 6.3125 C-0.62109375 5.13300781 -0.4921875 3.95351563 -0.359375 2.73828125 C-0.24078125 1.83464844 -0.1221875 0.93101562 0 0 Z " fill="#8CA3AE" transform="translate(273,304)"/>
<path d="M0 0 C1.4540625 0.0309375 1.4540625 0.0309375 2.9375 0.0625 C2.6075 1.7125 2.2775 3.3625 1.9375 5.0625 C0.2875 5.0625 -1.3625 5.0625 -3.0625 5.0625 C-3.625 3.125 -3.625 3.125 -4.0625 1.0625 C-3.0625 0.0625 -3.0625 0.0625 0 0 Z " fill="#ABC1CC" transform="translate(268.0625,304.9375)"/>
<path d="M0 0 C1.27310312 0.93441535 2.543388 1.87267111 3.8125 2.8125 C4.52019531 3.33457031 5.22789062 3.85664063 5.95703125 4.39453125 C9.04527974 6.82143398 10.73844687 8.21534062 12 12 C9.11835799 10.66413946 6.74723292 9.16362669 4.3125 7.125 C3.71050781 6.63257813 3.10851562 6.14015625 2.48828125 5.6328125 C0.79512501 3.77522902 0.39815079 2.45260887 0 0 Z " fill="#98B4C5" transform="translate(296,366)"/>
<path d="M0 0 C0.33 0 0.66 0 1 0 C2.25 7.625 2.25 7.625 0 11 C-0.66 11 -1.32 11 -2 11 C-4 8 -4 8 -4 5 C-2.68 5 -1.36 5 0 5 C0 3.35 0 1.7 0 0 Z " fill="#94ADBB" transform="translate(276,321)"/>
<path d="M0 0 C4.62609198 -0.3227506 7.28026121 0.15549386 11 3 C11 3.66 11 4.32 11 5 C6.87248551 4.39301257 3.6678852 2.96189209 0 1 C0 0.67 0 0.34 0 0 Z " fill="#7997A8" transform="translate(334,395)"/>
<path d="M0 0 C4.62 0 9.24 0 14 0 C14 0.99 14 1.98 14 3 C12.02 3 10.04 3 8 3 C8 2.67 8 2.34 8 2 C5.36 1.67 2.72 1.34 0 1 C0 0.67 0 0.34 0 0 Z " fill="#618196" transform="translate(280,366)"/>
<path d="M0 0 C0.66 0.99 1.32 1.98 2 3 C1.67 3.99 1.34 4.98 1 6 C-0.32 6 -1.64 6 -3 6 C-3 5.34 -3 4.68 -3 4 C-4.65 4 -6.3 4 -8 4 C-8 3.67 -8 3.34 -8 3 C-7.05125 2.690625 -6.1025 2.38125 -5.125 2.0625 C-2.13919592 1.12605258 -2.13919592 1.12605258 0 0 Z " fill="#709DB7" transform="translate(384,103)"/>
<path d="M0 0 C3.63 0 7.26 0 11 0 C10.01 1.485 10.01 1.485 9 3 C5.7 2.67 2.4 2.34 -1 2 C-0.67 1.34 -0.34 0.68 0 0 Z " fill="#80ACC5" transform="translate(347,120)"/>
<path d="M0 0 C5.28 0 10.56 0 16 0 C13.08235 1.9451 11.37462715 2.45276317 8 3 C8 2.34 8 1.68 8 1 C5.36 1 2.72 1 0 1 C0 0.67 0 0.34 0 0 Z " fill="#A7CAE0" transform="translate(274,141)"/>
<path d="M0 0 C2.7558573 4.13378595 3.10756445 6.05203546 3 11 C2.34 11 1.68 11 1 11 C-0.28317892 7.15046324 -0.06643637 4.05261865 0 0 Z " fill="#BBD3E0" transform="translate(273,315)"/>
<path d="M0 0 C-0.33 1.32 -0.66 2.64 -1 4 C-2.65 4.33 -4.3 4.66 -6 5 C-5.625 3.0625 -5.625 3.0625 -5 1 C-3 0 -3 0 0 0 Z " fill="#6B93AD" transform="translate(381,115)"/>
<path d="M0 0 C2.31 0 4.62 0 7 0 C7.33 0.99 7.66 1.98 8 3 C5.69 3 3.38 3 1 3 C0.67 2.01 0.34 1.02 0 0 Z " fill="#C3D5DC" transform="translate(264,268)"/>
<path d="M0 0 C3.3 0 6.6 0 10 0 C7.09907498 1.93395001 6.10325263 2.30131941 2.8125 2.625 C1.554375 2.74875 0.29625 2.8725 -1 3 C-0.67 2.01 -0.34 1.02 0 0 Z " fill="#5B8398" transform="translate(331,151)"/>
<path d="M0 0 C0 0.99 0 1.98 0 3 C0.66 3.66 1.32 4.32 2 5 C0.35 5 -1.3 5 -3 5 C-3.66 3.68 -4.32 2.36 -5 1 C-3 0 -3 0 0 0 Z " fill="#638094" transform="translate(269,376)"/>
<path d="M0 0 C1.98 0 3.96 0 6 0 C5.34 1.32 4.68 2.64 4 4 C2.68 4 1.36 4 0 4 C0 2.68 0 1.36 0 0 Z " fill="#6D95AC" transform="translate(337,147)"/>
<path d="M0 0 C0 0.66 0 1.32 0 2 C-5.02296004 3.13016601 -8.97874074 2.77916092 -14 2 C-14 1.67 -14 1.34 -14 1 C-12.41693353 0.83081732 -10.83353281 0.66476064 -9.25 0.5 C-8.36828125 0.4071875 -7.4865625 0.314375 -6.578125 0.21875 C-4 0 -4 0 0 0 Z " fill="#7BA8C0" transform="translate(350,126)"/>
<path d="M0 0 C2.875 0.25 2.875 0.25 6 1 C7.375 3.0625 7.375 3.0625 8 5 C4.62496331 3.8141763 2.35277269 2.72426311 0 0 Z " fill="#94AEC0" transform="translate(325,390)"/>
<path d="M0 0 C0.33 0.99 0.66 1.98 1 3 C3.01508358 3.73323796 3.01508358 3.73323796 5 4 C4.01 4.33 3.02 4.66 2 5 C1.26676204 7.01508358 1.26676204 7.01508358 1 9 C-0.4783226 6.04335481 -0.06032783 3.25770263 0 0 Z " fill="#9AC1D1" transform="translate(220,310)"/>
<path d="M0 0 C0.53625 0.226875 1.0725 0.45375 1.625 0.6875 C-3.79038462 3.76442308 -3.79038462 3.76442308 -6.75 3.375 C-7.554375 3.0346875 -7.554375 3.0346875 -8.375 2.6875 C-2.95961538 -0.38942308 -2.95961538 -0.38942308 0 0 Z " fill="#8AAEC4" transform="translate(388.375,98.3125)"/>
<path d="M0 0 C0.66 0 1.32 0 2 0 C2.99 1.32 3.98 2.64 5 4 C1.7 4 -1.6 4 -5 4 C-5 3.67 -5 3.34 -5 3 C-3.35 3 -1.7 3 0 3 C0 2.01 0 1.02 0 0 Z " fill="#547489" transform="translate(305,379)"/>
<path d="M0 0 C1.32 1.65 2.64 3.3 4 5 C3.67 5.66 3.34 6.32 3 7 C2.34 7 1.68 7 1 7 C-0.0625 4.625 -0.0625 4.625 -1 2 C-0.67 1.34 -0.34 0.68 0 0 Z " fill="#7E97A7" transform="translate(285,347)"/>
<path d="M0 0 C2.99332739 0.9977758 3.94766315 1.7522025 6 4 C4.02 4.99 4.02 4.99 2 6 C1.34 4.02 0.68 2.04 0 0 Z " fill="#A1BACC" transform="translate(226,332)"/>
<path d="M0 0 C1.5 1.125 1.5 1.125 3 3 C3.1875 6.1875 3.1875 6.1875 3 9 C2.34 8.67 1.68 8.34 1 8 C0.40644386 5.35139573 0.25790731 2.70802678 0 0 Z " fill="#B0C7D6" transform="translate(276,327)"/>
<path d="M0 0 C1.65 0 3.3 0 5 0 C5.33 0.99 5.66 1.98 6 3 C3.69 3 1.38 3 -1 3 C-0.67 2.01 -0.34 1.02 0 0 Z " fill="#B6CAD5" transform="translate(266,296)"/>
</svg>
